<?xml version="1.0" encoding="utf-8"?>
<!-- Generator: Adobe Illustrator 19.1.0, SVG Export Plug-In . SVG Version: 6.00 Build 0)  -->
<svg version="1.1" id="Capa_1" xmlns="http://www.w3.org/2000/svg" xmlns:xlink="http://www.w3.org/1999/xlink" x="0px" y="0px"
	 viewBox="-487 -243 788 788" style="enable-background:new -487 -243 788 788;" xml:space="preserve">
<style type="text/css">
	.st0{fill:#1C2B3D;}
	.st1{fill:#2E4152;}
	.st2{fill:#CFB53B;}
</style>
<path class="st0" d="M185.6-127.6c-153.9-153.9-403.3-153.9-557.2,0s-153.9,403.3,0,557.2s403.3,153.9,557.2,0
	S339.5,26.3,185.6-127.6z M-23.3,220.7c-38.5,38.5-100.8,38.5-139.3,0c-38.5-38.5-38.5-100.8,0-139.3s100.8-38.5,139.3,0
	S15.1,182.2-23.3,220.7z"/>
<path class="st0" d="M16.4,41.6C-44-18.9-142-18.9-202.4,41.6c-60.5,60.5-60.5,158.5,0,218.9c60.5,60.5,158.5,60.5,218.9,0
	C76.9,200,76.9,102,16.4,41.6z"/>
<path class="st0" d="M-63.2,180.8c-16.5,16.5-43.2,16.5-59.7,0s-16.5-43.2,0-59.7s43.2-16.5,59.7,0S-46.7,164.4-63.2,180.8z"/>
<g>
	<path class="st1" d="M16.4,260.4c-10.7,10.7-22.6,19.4-35.2,26.3L96,496.7c32.1-17.6,62.4-39.9,89.6-67.1s49.5-57.5,67.1-89.6
		L42.8,225.2C35.9,237.8,27.1,249.8,16.4,260.4z"/>
	<path class="st1" d="M-202.4,41.6c10.7-10.7,22.6-19.4,35.2-26.3L-282-194.7c-32.1,17.6-62.4,39.9-89.6,67.1s-49.5,57.5-67.1,89.6
		l209.9,114.8C-221.9,64.2-213.1,52.2-202.4,41.6z"/>
</g>
<path class="st2" d="M-100.5,196.4c-11.8,4-24.3,8-36.6,12.4c-9.6,3.4-12.7,2.3-9.9-9.1c12.9-51.1,24.7-102.5,37.8-153.6
	c3.3-12.9,0.6-15.2-11.3-10.8c-7,2.6-14.5,3.8-24.3,6.2c8.4-30,16.2-58.1,24.1-86.1c2.3-8.1,9.9-6.3,15.5-7.3
	c25.4-4.5,25.4-4.3,21.3,21c-1.1,6.6-2.4,13.1-3.8,19.6C-91.5,7.5-91.5,7.5-72.1,3.9c27.9-5.1,27.9-5.1,22.4,22.5
	c-5.6,27.9-11.4,55.8-17,83.8c-3.5,17.5-3.4,17.5,13.2,13c7.8-2.1,15.6-4.1,23.3-6.5c9.4-3,10.8,0.5,8.2,8.8
	c-3.5,11.3-6.7,22.8-9.9,34.2c-4.1,14.7-4.1,14.7,10.3,11.2c11.9-2.9,23.7-5.8,38.3-9.3c-4.9,13.2-9,24.4-13.4,35.6
	c-39.8,102.2-79.7,204.4-119.8,306.4c-1.6,4.1-1,13.2-7.8,11c-5.5-1.8,0.2-8.4,1.2-12.3c17.3-70.5,34.9-141,53-211.4
	c3.1-12.1-0.4-13.1-10.5-9.6c-9,3.1-18.4,4.7-27.4,7.7c-8.7,2.9-11,1.1-8.7-8.2c6.1-25.4,11.6-50.9,17.3-76.4
	C-99,202.2-97.7,200-100.5,196.4z"/>
<path class="st2" d="M-37.6-174.9c-13.6-6.2-25.8-7.8-38.2-5.3c-20.8,4.3-35.4,24.1-32.9,43.6c2.9,22.8,22.5,38.9,46,37.7
	c2.8-0.2,5.8-1.6,8.4-1.1c6.2,1.3,14.4-11.8,18.1,0.5C-30.8-81.8-35.6-74.9-51-71c-38,9.4-74.2-7.4-87.3-40.6
	c-14.2-36-0.3-76.2,32.3-93.5c19.7-10.4,40.2-9.3,61.1-3.9c5.5,1.5,7.6,4.8,7.4,10.4C-37.8-191.5-37.6-184.4-37.6-174.9z"/>
<path class="st2" d="M-169.6-11c0,13.8-0.3,27.6,0.1,41.4c0.2,7.6-1.7,10.9-10.2,11.2C-206,42.5-206,42.9-206,16.8
	c0-23.8-0.5-47.6,0-71.3c0.2-9-1.9-13.8-11.7-12c-15,2.7-13.3-7.1-14.2-17c-1.1-12.8,5.2-13.7,15.2-13.4c20.4,0.6,40.9,0.9,61.3,0
	c11.5-0.5,13.9,4.4,13,14.2c-0.7,8.1,2.4,18.6-12,16.1c-13-2.2-16.5,3.5-15.5,15.8C-168.8-37.7-169.6-24.3-169.6-11z"/>
<path class="st2" d="M-24.2-27.2c0-19.5,0.3-38.9-0.2-58.4c-0.2-8.4,2.1-12.1,11.1-11.7c14.7,0.6,29.4-0.2,44.1,0.5
	c31.9,1.5,47.3,28.4,31.6,56.2c-3.8,6.7-1.5,8.1,3.1,11.9C85-13,82.8,17.6,61.4,30.5C36.2,45.8,8.1,40.9-19.2,41.1
	c-6.3,0-4.9-6-4.9-9.9C-24.2,11.7-24.1-7.8-24.2-27.2C-24.1-27.2-24.2-27.2-24.2-27.2z M10.4-0.8C11,7.2,10.1,14.6,22,13
	c9.3-1.2,20.6-0.4,21.1-13.2c0.5-12-9-13.9-19.7-13.3C13.9-15.4,9.5-11.8,10.4-0.8z M17.9-42.7c7.9-0.6,14.4-3.6,14.6-12.1
	c0.3-9.4-6.7-12.6-15-13.2C6.8-68.6,11-60.3,9.8-54.8C10.8-49.9,7.1-41.8,17.9-42.7z"/>
</svg>
