<?xml version="1.0" encoding="UTF-8" standalone="no"?>
<!-- Created with Inkscape (http://www.inkscape.org/) -->

<svg
   xmlns:dc="http://purl.org/dc/elements/1.1/"
   xmlns:cc="http://creativecommons.org/ns#"
   xmlns:rdf="http://www.w3.org/1999/02/22-rdf-syntax-ns#"
   xmlns:svg="http://www.w3.org/2000/svg"
   xmlns="http://www.w3.org/2000/svg"
   xmlns:sodipodi="http://sodipodi.sourceforge.net/DTD/sodipodi-0.dtd"
   xmlns:inkscape="http://www.inkscape.org/namespaces/inkscape"
   version="1.1"
   viewBox="0 0 202.36586 97.265083"
   id="svg4194"
   inkscape:version="0.91 r13725"
   sodipodi:docname="EPsig.svg"
   width="202.36586"
   height="97.265083">
  <sodipodi:namedview
     pagecolor="#ffffff"
     bordercolor="#666666"
     borderopacity="1"
     objecttolerance="10"
     gridtolerance="10"
     guidetolerance="10"
     inkscape:pageopacity="0"
     inkscape:pageshadow="2"
     inkscape:window-width="1283"
     inkscape:window-height="759"
     id="namedview4212"
     showgrid="false"
     inkscape:zoom="3.8780155"
     inkscape:cx="121.67031"
     inkscape:cy="39.982044"
     inkscape:window-x="0"
     inkscape:window-y="0"
     inkscape:window-maximized="0"
     inkscape:current-layer="svg4194"
     fit-margin-top="0"
     fit-margin-left="0"
     fit-margin-right="0"
     fit-margin-bottom="0" />
  <defs
     id="defs4196" />
  <metadata
     id="metadata4198">
    <rdf:RDF>
      <cc:Work
         rdf:about="">
        <dc:format>image/svg+xml</dc:format>
        <dc:type
           rdf:resource="http://purl.org/dc/dcmitype/StillImage" />
        <dc:title></dc:title>
      </cc:Work>
    </rdf:RDF>
  </metadata>
  <g
     transform="translate(1809.3013,-341.08338)"
     id="g4200">
    <g
       transform="matrix(0.91905171,0,0,0.91905171,-138.25816,31.546761)"
       id="g4202"
       style="fill:#0b0c0b;fill-rule:evenodd">
      <path
         d="m -1711,396 c -6.35,-7.161 -2.512,-17.1 -0.2382,-24.96 9.224,-26.46 37.29,-31.83 61.91,-34.24 3.812,0.4088 9.127,-0.9862 11.06,3.464 3.24,12.3 -7.428,22.05 -15.98,28.72 -7.148,4.466 -15.7,5.651 -24.68,6.005 -2.825,-0.3612 -6.685,0.02 -8.501,-2.682 0.68,-0.6462 1.804,-0.885 2.721,-0.5575 2.519,2.259 6.29,1.116 9.599,1.32 12.58,-0.3675 23.37,-8.012 30.16,-18.09 2.15,-4.479 4.758,-10.17 1.824,-15.09 -2.225,-2.055 -5.662,-1.619 -8.679,-1.341 -15.51,1.491 -30.04,5.004 -42.5,13.38 -9.952,7.618 -15.87,18.59 -17.36,30.44 -0.3194,4.084 -0.1426,8.794 3.023,11.74 1.218,0.96 2.715,1.98 4.261,1.736 5.711,-5.343 7.93,-12.36 10.66,-18.96 0.9188,-2.968 0.9738,-6.561 -0.5649,-9.256 0.1099,-1.07 1.3,-1.165 1.995,-1.601 1.885,-0.6125 2.505,1.764 3.098,2.955 2.442,8.38 -3.581,15.13 -7.072,21.97 -2.268,2.437 -3.588,6.127 -6.936,7.263 -0.6817,0.0161 -1.412,0.0513 -2.151,0.0513 -2.155,0 -4.379,-0.2998 -5.637,-2.256"
         id="path4204"
         inkscape:connector-curvature="0" />
      <path
         d="m -1795,397 c -0.5518,-2.518 0.1634,-5.206 -0.1778,-7.589 -2.144,1.457 -4.145,3.267 -6.289,4.867 -4.288,2.906 -10.88,3.628 -15.65,1.211 -2.654,-2.607 0.1362,-6.051 1.341,-8.611 3.621,-4.723 7.943,-9.053 12.5,-12.67 0.8096,-7.541 8.753,-13.57 15.3,-16.04 1.817,-0.4575 4.002,-0.2388 4.752,1.578 0.04,1.75 -0.9805,3.186 -2.219,4.269 -0.7695,0.2312 -1.416,-0.2512 -1.354,-0.9525 -0.028,-0.92 0.646,-1.914 -0.068,-2.744 -5.514,1.968 -10.97,6.168 -12.73,11.97 0.8511,0.34 2.464,-0.055 3.526,0.2788 0.9262,0.5375 2.002,1.498 1.396,2.634 -1.62,2.852 -5.018,1.879 -7.699,1.73 -5.371,4.621 -11.44,9.556 -12.61,16.47 1.246,2.144 4.097,0.6748 5.792,1.062 6.521,-0.5855 10.75,-6.024 15.29,-10.49 1.872,-12.99 11.74,-24.18 23.03,-31.28 2.021,-0.68 4.914,-3.206 6.732,-0.6525 0.2335,4.831 -4.417,8.914 -4.417,8.914 l -5.453,6.332 c -5.787,6.712 -11.97,12.42 -17.52,18.67 -0.6196,3.179 -1.314,6.779 -0.3882,10.13 7.508,-6.426 14.35,-14.33 22.97,-18.26 0.9185,-0.0888 1.777,0.5925 1.94,1.444 -0.5176,1.83 -1.606,3.328 -2.131,5.105 2.614,-2.594 5.623,-9.135 10.66,-7.005 l 3.335,4.139 c 5.514,-4.909 12.11,-11.25 19.87,-7.359 2.069,1.566 2.689,3.662 3.022,5.976 -0.5033,2.608 -0.5033,5.561 -3.07,7.168 -2.866,0.4902 -6.65,1.144 -8.944,-0.98 0.054,-0.4156 0.2588,-0.8506 0.6739,-1.144 2.308,-0.475 4.724,0.66 6.738,-0.5025 1.348,-2.219 1.981,-5.541 0.6538,-7.971 -0.7349,-1.314 -2.349,-1.272 -3.621,-1.6 -7.528,-0.1012 -12.83,7.618 -16.71,13.06 -1.859,1.728 -2.947,6.187 -6.297,4.506 -0.2104,-0.2036 -0.4965,-0.1978 -0.7144,-0.4698 1.524,-3.976 8.182,-8.074 3.438,-12.39 -0.5785,-0.7625 -1.266,0.035 -1.824,0.1838 -4.902,3.771 -5.678,9.836 -10.16,13.46 -1.124,0.0889 -2.049,-0.17 -2.907,-0.7828 0.1363,-3.513 1.253,-6.636 2.444,-9.693 l -0.9869,0.0275 c -6.29,4.513 -11.07,10.6 -17,15.59 -0.5205,-0.006 -1.1,0.0341 -1.666,0.0341 -1.27,0 -2.475,-0.2055 -2.799,-1.614 z m 9.829,-27.45 c -1.749,3.418 -4.479,6.719 -4.465,10.45 4.956,-4.486 9.693,-9.306 14.01,-14.19 2.928,-3.934 7.134,-7.625 8.29,-12.01 -6.65,3.955 -13.36,8.965 -17.83,15.75"
         id="path4206"
         inkscape:connector-curvature="0" />
      <path
         d="m -1747,364.3 c -2.763,-0.8438 -0.5166,-4.064 -0.7754,-6.031 1.089,-1.572 4.526,-1.722 4.867,0.7362 0.088,0.4825 -0.5386,0.9175 -0.9609,1 -1.237,1.116 0.061,4.608 -1.879,4.608 -0.3199,0 -0.729,-0.0962 -1.252,-0.3125"
         id="path4208"
         inkscape:connector-curvature="0" />
      <path
         d="m -1657,442.4 c -8.406,-1.422 -17,-2.063 -24.47,-5.82 0.7425,-1.212 2.566,-1.402 3.819,-2.137 8.386,-1.954 15.96,-5.929 23.54,-9.626 l 23.1,-10.67 0.9863,-0.0278 c -2.144,1.675 -4.642,3.274 -7.146,4.39 -12.81,5.725 -24.72,13.38 -37.67,18.62 7.598,3.056 16.46,3.056 25.05,3.765 17.4,1.211 35.81,-2.464 43.2,-19.73 4.132,-6.916 5.056,-15.45 4.145,-23.94 -0.6863,-2.444 -1.178,-5.385 -4.022,-6.657 -4.316,-1.156 -9.434,2.403 -13.18,-1.375 -1.295,-1.089 -0.7225,-3.635 -2.764,-3.792 -5.168,1.661 -8.394,-4.022 -13.05,-1.525 -1.321,0.6675 -2.82,-0.4212 -4.235,-0.7425 -3.621,1.491 -7.399,2.418 -10.5,4.957 -0.9737,0.585 -1.838,-0.2314 -2.756,-0.4291 -0.2863,-0.1982 -0.089,-0.5581 -0.1638,-0.8379 2.389,-0.129 -0.6262,-2.58 1.762,-2.784 1.478,-0.0337 2.716,-1.116 3.321,-2.395 l -0.013,-0.4975 c -4.589,2.009 -8.795,5.698 -13.45,8.059 -1.948,0.8916 -4.249,1.504 -6.256,0.293 -1.866,1.158 -4.208,3.26 -6.501,1.552 -1.911,-0.7959 -0.55,-2.654 -0.3062,-3.928 0.45,-1.974 2.662,-3.648 1.77,-5.738 -4.064,3.608 -7.039,8.815 -12.27,10.42 -1.199,0.0884 -2.321,-0.021 -3.246,-0.6334 l -0.021,-0.9804 c 6.004,-1.62 9.87,-7.76 14.4,-12.02 1.058,-0.2312 1.949,-0.96 3.229,-0.7012 1.652,1.859 2.648,5.208 1.366,7.699 -0.3325,0.5725 -0.9525,1.007 -0.8025,1.708 4.826,-1.17 4.791,-8.767 10.43,-8.338 0.9862,0.19 0.8712,1.389 0.8912,2.022 -1.422,2.279 -3.71,3.954 -4.915,6.166 l 0.1363,0.1368 c 4.942,-2.225 9.352,-5.779 14.14,-8.428 1.471,-0.3125 3.219,-0.9188 4.71,-0.2438 1.56,0.5912 0.7963,4.124 3.084,2.456 3.2,-4.438 7.325,-8.195 11.39,-11.74 5.514,-4.982 11.59,-9.489 18.13,-12.59 1.401,-0.1088 3.425,-0.9262 4.024,0.5388 0.3813,1.326 -1.172,0.9375 -1.649,1.728 -6.085,7.242 -12.62,13.66 -20.45,18.56 l 0.014,0.3462 c 1.274,0.3962 3.076,-0.5575 3.676,0.8988 0.4551,1.539 -2.45,3.431 0.3125,4.214 2.608,0.4288 5.684,-0.4838 7.76,1.219 1.648,1.232 1.069,3.424 2.649,4.648 4.696,-0.3192 10.58,-1.164 13.92,2.839 5.255,5.568 4.078,15.09 2.551,21.88 -2.381,9.265 -8.331,19.32 -17.51,23.76 -8.66,4.721 -19.13,5.683 -29.58,5.683 -3.55,0 -7.1,-0.1114 -10.58,-0.2238 z m 21.95,-61.92 c 1.184,-0.4425 3.008,-0.4212 3.185,-2.109 -1.185,0.5162 -2.151,1.388 -3.185,2.109 z m 4.552,-6.711 c 1.594,-0.885 3.268,-1.409 4.644,-2.641 4.015,-2.77 8.665,-5.269 11.46,-9.345 -5.766,3.09 -11.15,7.371 -16.1,11.99"
         id="path4210"
         inkscape:connector-curvature="0" />
    </g>
  </g>
</svg>
