<?xml version="1.0" encoding="utf-8"?>
<!-- Generator: Adobe Illustrator 19.1.0, SVG Export Plug-In . SVG Version: 6.00 Build 0)  -->
<svg version="1.1"
	 id="svg4194" xmlns:rdf="http://www.w3.org/1999/02/22-rdf-syntax-ns#" xmlns:svg="http://www.w3.org/2000/svg" xmlns:sodipodi="http://sodipodi.sourceforge.net/DTD/sodipodi-0.dtd" xmlns:inkscape="http://www.inkscape.org/namespaces/inkscape" xmlns:dc="http://purl.org/dc/elements/1.1/" xmlns:cc="http://creativecommons.org/ns#" sodipodi:docname="EPsig.svg" inkscape:version="0.91 r13725"
	 xmlns="http://www.w3.org/2000/svg" xmlns:xlink="http://www.w3.org/1999/xlink" x="0px" y="0px" viewBox="-48 102.7 202.4 97.3"
	 style="enable-background:new -48 102.7 202.4 97.3;" xml:space="preserve">
<style type="text/css">
	.st0{fill:#FFF8EB;}
</style>
<sodipodi:namedview  inkscape:cx="121.67031" fit-margin-top="0" inkscape:cy="39.982044" fit-margin-left="0" gridtolerance="10" id="namedview4212" pagecolor="#ffffff" bordercolor="#666666" showgrid="false" borderopacity="1" guidetolerance="10" inkscape:zoom="3.8780155" objecttolerance="10" fit-margin-bottom="0" fit-margin-right="0" inkscape:current-layer="svg4194" inkscape:window-maximized="0" inkscape:window-y="0" inkscape:window-x="0" inkscape:window-height="759" inkscape:pageshadow="2" inkscape:window-width="1283" inkscape:pageopacity="0">
	</sodipodi:namedview>
<g id="g4200" transform="translate(1809.3013,-341.08338)">
	<g id="g4202" transform="matrix(0.91905171,0,0,0.91905171,-138.25816,31.546761)">
		<path id="path4204" inkscape:connector-curvature="0" class="st0" d="M-1763.2,507.8c-6.3-7.2-2.5-17.1-0.2-25
			c9.2-26.5,37.3-31.8,61.9-34.2c3.8,0.4,9.1-1,11.1,3.5c3.2,12.3-7.4,22-16,28.7c-7.1,4.5-15.7,5.7-24.7,6c-2.8-0.4-6.7,0-8.5-2.7
			c0.7-0.6,1.8-0.9,2.7-0.6c2.5,2.3,6.3,1.1,9.6,1.3c12.6-0.4,23.4-8,30.2-18.1c2.2-4.5,4.8-10.2,1.8-15.1c-2.2-2.1-5.7-1.6-8.7-1.3
			c-15.5,1.5-30,5-42.5,13.4c-10,7.6-15.9,18.6-17.4,30.4c-0.3,4.1-0.1,8.8,3,11.7c1.2,1,2.7,2,4.3,1.7c5.7-5.3,7.9-12.4,10.7-19
			c0.9-3,1-6.6-0.6-9.3c0.1-1.1,1.3-1.2,2-1.6c1.9-0.6,2.5,1.8,3.1,3c2.4,8.4-3.6,15.1-7.1,22c-2.3,2.4-3.6,6.1-6.9,7.3
			c-0.7,0-1.4,0.1-2.2,0.1C-1759.7,510.1-1762,509.8-1763.2,507.8"/>
		<path id="path4206" inkscape:connector-curvature="0" class="st0" d="M-1847.2,508.8c-0.6-2.5,0.2-5.2-0.2-7.6
			c-2.1,1.5-4.1,3.3-6.3,4.9c-4.3,2.9-10.9,3.6-15.7,1.2c-2.7-2.6,0.1-6.1,1.3-8.6c3.6-4.7,7.9-9.1,12.5-12.7
			c0.8-7.5,8.8-13.6,15.3-16c1.8-0.5,4-0.2,4.8,1.6c0,1.8-1,3.2-2.2,4.3c-0.8,0.2-1.4-0.3-1.4-1c0-0.9,0.6-1.9-0.1-2.7
			c-5.5,2-11,6.2-12.7,12c0.9,0.3,2.5-0.1,3.5,0.3c0.9,0.5,2,1.5,1.4,2.6c-1.6,2.9-5,1.9-7.7,1.7c-5.4,4.6-11.4,9.6-12.6,16.5
			c1.2,2.1,4.1,0.7,5.8,1.1c6.5-0.6,10.8-6,15.3-10.5c1.9-13,11.7-24.2,23-31.3c2-0.7,4.9-3.2,6.7-0.7c0.2,4.8-4.4,8.9-4.4,8.9
			l-5.5,6.3c-5.8,6.7-12,12.4-17.5,18.7c-0.6,3.2-1.3,6.8-0.4,10.1c7.5-6.4,14.3-14.3,23-18.3c0.9-0.1,1.8,0.6,1.9,1.4
			c-0.5,1.8-1.6,3.3-2.1,5.1c2.6-2.6,5.6-9.1,10.7-7l3.3,4.1c5.5-4.9,12.1-11.2,19.9-7.4c2.1,1.6,2.7,3.7,3,6
			c-0.5,2.6-0.5,5.6-3.1,7.2c-2.9,0.5-6.7,1.1-8.9-1c0.1-0.4,0.3-0.9,0.7-1.1c2.3-0.5,4.7,0.7,6.7-0.5c1.3-2.2,2-5.5,0.7-8
			c-0.7-1.3-2.3-1.3-3.6-1.6c-7.5-0.1-12.8,7.6-16.7,13.1c-1.9,1.7-2.9,6.2-6.3,4.5c-0.2-0.2-0.5-0.2-0.7-0.5
			c1.5-4,8.2-8.1,3.4-12.4c-0.6-0.8-1.3,0-1.8,0.2c-4.9,3.8-5.7,9.8-10.2,13.5c-1.1,0.1-2-0.2-2.9-0.8c0.1-3.5,1.3-6.6,2.4-9.7l-1,0
			c-6.3,4.5-11.1,10.6-17,15.6c-0.5,0-1.1,0-1.7,0C-1845.7,510.4-1846.9,510.2-1847.2,508.8L-1847.2,508.8z M-1837.4,481.3
			c-1.7,3.4-4.5,6.7-4.5,10.5c5-4.5,9.7-9.3,14-14.2c2.9-3.9,7.1-7.6,8.3-12C-1826.2,469.5-1832.9,474.5-1837.4,481.3"/>
		<path id="path4208" inkscape:connector-curvature="0" class="st0" d="M-1799.2,476.1c-2.8-0.8-0.5-4.1-0.8-6
			c1.1-1.6,4.5-1.7,4.9,0.7c0.1,0.5-0.5,0.9-1,1c-1.2,1.1,0.1,4.6-1.9,4.6C-1798.3,476.4-1798.7,476.3-1799.2,476.1"/>
		<path id="path4210" inkscape:connector-curvature="0" class="st0" d="M-1709.2,554.2c-8.4-1.4-17-2.1-24.5-5.8
			c0.7-1.2,2.6-1.4,3.8-2.1c8.4-2,16-5.9,23.5-9.6l23.1-10.7l1,0c-2.1,1.7-4.6,3.3-7.1,4.4c-12.8,5.7-24.7,13.4-37.7,18.6
			c7.6,3.1,16.5,3.1,25.1,3.8c17.4,1.2,35.8-2.5,43.2-19.7c4.1-6.9,5.1-15.5,4.1-23.9c-0.7-2.4-1.2-5.4-4-6.7
			c-4.3-1.2-9.4,2.4-13.2-1.4c-1.3-1.1-0.7-3.6-2.8-3.8c-5.2,1.7-8.4-4-13.1-1.5c-1.3,0.7-2.8-0.4-4.2-0.7c-3.6,1.5-7.4,2.4-10.5,5
			c-1,0.6-1.8-0.2-2.8-0.4c-0.3-0.2-0.1-0.6-0.2-0.8c2.4-0.1-0.6-2.6,1.8-2.8c1.5,0,2.7-1.1,3.3-2.4l0-0.5c-4.6,2-8.8,5.7-13.4,8.1
			c-1.9,0.9-4.2,1.5-6.3,0.3c-1.9,1.2-4.2,3.3-6.5,1.6c-1.9-0.8-0.6-2.7-0.3-3.9c0.4-2,2.7-3.6,1.8-5.7c-4.1,3.6-7,8.8-12.3,10.4
			c-1.2,0.1-2.3,0-3.2-0.6l0-1c6-1.6,9.9-7.8,14.4-12c1.1-0.2,1.9-1,3.2-0.7c1.7,1.9,2.6,5.2,1.4,7.7c-0.3,0.6-1,1-0.8,1.7
			c4.8-1.2,4.8-8.8,10.4-8.3c1,0.2,0.9,1.4,0.9,2c-1.4,2.3-3.7,4-4.9,6.2l0.1,0.1c4.9-2.2,9.4-5.8,14.1-8.4c1.5-0.3,3.2-0.9,4.7-0.2
			c1.6,0.6,0.8,4.1,3.1,2.5c3.2-4.4,7.3-8.2,11.4-11.7c5.5-5,11.6-9.5,18.1-12.6c1.4-0.1,3.4-0.9,4,0.5c0.4,1.3-1.2,0.9-1.6,1.7
			c-6.1,7.2-12.6,13.7-20.4,18.6l0,0.3c1.3,0.4,3.1-0.6,3.7,0.9c0.5,1.5-2.4,3.4,0.3,4.2c2.6,0.4,5.7-0.5,7.8,1.2
			c1.6,1.2,1.1,3.4,2.6,4.6c4.7-0.3,10.6-1.2,13.9,2.8c5.3,5.6,4.1,15.1,2.6,21.9c-2.4,9.3-8.3,19.3-17.5,23.8
			c-8.7,4.7-19.1,5.7-29.6,5.7C-1702.2,554.4-1705.7,554.3-1709.2,554.2L-1709.2,554.2z M-1687.3,492.3c1.2-0.4,3-0.4,3.2-2.1
			C-1685.3,490.7-1686.2,491.5-1687.3,492.3z M-1682.7,485.6c1.6-0.9,3.3-1.4,4.6-2.6c4-2.8,8.7-5.3,11.5-9.3
			C-1672.4,476.7-1677.8,480.9-1682.7,485.6"/>
	</g>
</g>
</svg>
