<svg xmlns="http://www.w3.org/2000/svg" width="616" height="616" viewBox="0 0 616 616"><g><path fill="#C6C6C6" d="M305 14.83l78.215 56.825h96.677l29.874 91.946 78.216 56.826-29.875 91.947 29.875 91.948-78.216 56.824-29.874 91.947h-96.677l-78.215 56.826-78.215-56.826h-96.678l-29.875-91.947-78.214-56.824 29.877-91.948-29.877-91.947 78.214-56.826 29.875-91.946h96.678z"><animateTransform attributeName="transform" attributeType="XML" type="rotate" from="360 308 308" to="0 308 308" dur="20s" repeatCount="indefinite"/></path><path fill="#EDEDED" d="M305-.389l78.215 56.826h96.679l29.872 91.948 78.216 56.825-29.875 91.946 29.875 91.948-78.216 56.825-29.872 91.946h-96.679l-78.215 56.825-78.215-56.825h-96.678l-29.875-91.946-78.212-56.825 29.875-91.948-29.875-91.946 78.212-56.825 29.875-91.948h96.678z"><animateTransform attributeName="transform" attributeType="XML" type="rotate" from="0 308 308" to="360 308 308" dur="20s" repeatCount="indefinite"/></path><path fill="#B2B2B2" d="M443.322 362.854l-4.394-42.95-4.124-40.308-4.758-46.516-6.711-65.608h-236.667l-6.658 65.645-4.717 46.509-4.086 40.277-4.348 42.896-4.512 44.473 7.826 6.247 39.615 31.627 41.396 33.047 53.816 42.967 53.61-43.578 40.954-33.293 38.963-31.672 9.125-.336-4.33-49.427z"/><path fill="#EDEDED" d="M443.322 355.516l-4.394-44.945-4.124-42.175-4.758-48.675-6.711-68.651h-236.667l-6.658 68.69-4.717 48.667-4.086 42.144-4.348 44.888-4.512 46.534 7.826 6.537 39.615 33.093 41.396 34.581 53.816 44.956 53.61-45.599 40.954-34.835 38.963-33.143 9.125-7.762-4.33-44.305z"/><g fill="#878787"><path d="M305 414.622l60.25 37.388-60.238-45.112v-.016l-.012.008-.01-.008v.016l-60.238 45.112zM352.618 259.665l8.411-6.642 38.803 9.634-42.404 14.408zM257.383 259.665l-8.41-6.642-38.801 9.634 42.401 14.408zM305.002 399.001l47.777-45.151-14.43 5.539v-5.054h-24.369l-8.978 3.897-9.1-3.897h-24.248v5.054l-14.431-5.539 47.777 45.151h.002z"><animateTransform attributeName="transform" attributeType="XML" dur="1s" values="0,1;0,-1;0,1" repeatCount="indefinite"/></path></g><path fill="#878787" d="M186.668 151.069h236.668l-118.336 61.515z"/><path opacity=".1" fill="#fff" d="M479.894 56.437h-96.679l-78.215-56.826-78.215 56.826h-96.678l-29.875 91.948-78.212 56.825 3.998 12.31-4 2.907 27.402 84.338-27.4 84.339 3.998 2.905-4 12.313 78.214 56.824 29.754 91.577 353.203-486.145z"><animateTransform attributeName="transform" attributeType="XML" type="rotate" from="0 308 308" to="360 308 308" dur="30s" repeatCount="indefinite"/></path></g></svg>