<?xml version="1.0" encoding="utf-8"?>
<!-- Generator: Adobe Illustrator 19.1.0, SVG Export Plug-In . SVG Version: 6.00 Build 0)  -->
<svg version="1.1" id="Layer_1" xmlns="http://www.w3.org/2000/svg" xmlns:xlink="http://www.w3.org/1999/xlink" x="0px" y="0px"
	 viewBox="179.3 -63.7 396.5 396.5" style="enable-background:new 179.3 -63.7 396.5 396.5;" xml:space="preserve">
<style type="text/css">
	.st0{fill:#BE3746;}
	.st1{fill:#FF6469;}
	.st2{fill:#D75055;}
	.st3{fill:#FFF0BE;}
	.st4{fill:#FFDC9B;}
	.st5{fill:#FFAA64;}
	.st6{fill:#FFCD73;}
</style>
<rect x="328.8" y="-42.5" transform="matrix(-0.7071 -0.7071 0.7071 -0.7071 518.5135 421.061)" class="st0" width="35.3" height="291.2"/>
<rect x="391.2" y="19.9" transform="matrix(-0.7071 -0.7071 0.7071 -0.7071 580.9135 571.7081)" class="st1" width="35.3" height="291.2"/>
<polygon class="st2" points="256,218.6 274.7,237.3 293.4,256 499.3,50.1 480.6,31.4 461.9,12.7 "/>
<path class="st3" d="M568-6.1l-25-25l-43.7,43.7L543,56.3l25-25C578.3,21,578.3,4.3,568-6.1z"/>
<path class="st4" d="M543-31l-25-25c-1.6-1.6-3.4-3-5.3-4.1c-1.9-1.1-3.9-2-5.9-2.6c-0.8-0.2-1.6-0.4-2.5-0.6
	c-3.3-0.6-6.8-0.6-10.1,0c-0.8,0.2-1.7,0.4-2.5,0.6c-2,0.6-4,1.5-5.9,2.6c-1.9,1.1-3.7,2.5-5.3,4.1l-25,25l43.7,43.7L543-31L543-31z
	"/>
<path class="st3" d="M274.7,237.3l-49.9,49.9l21.8,21.8l-59.4,23.3c-2.4,0.9-4.7,0.2-6.2-1.3l0,0c-0.9-0.9-1.4-2-1.6-3.2
	c-0.1-0.9-0.1-2,0.3-3l23.3-59.4l0,0l28.1-71.8l-51.3,131.2c-1.8,4.7,2.8,9.3,7.5,7.5L318.4,281l-25-25L274.7,237.3z"/>
<g>
	<path class="st4" d="M181,331L181,331c-0.9-0.9-1.4-2-1.6-3.2C179.5,329,180.1,330.2,181,331z"/>
	<polygon class="st4" points="224.8,287.2 274.7,237.3 256,218.6 231,193.6 202.9,265.4 	"/>
</g>
<path class="st2" d="M202.9,265.4l-23.3,59.4c-0.4,1-0.5,2-0.3,3c0.2,1.2,0.8,2.4,1.6,3.2c1.5,1.5,3.9,2.2,6.2,1.3l59.4-23.3
	l-21.8-21.8L202.9,265.4L202.9,265.4z"/>
<polygon class="st5" points="480.6,31.4 499.3,12.7 455.7,-31 436.9,-12.3 461.9,12.7 "/>
<polygon class="st6" points="480.6,31.4 499.3,50.1 524.3,75.1 543,56.3 499.3,12.7 "/>
</svg>
